<?xml version="1.0" encoding="UTF-8"?>
<svg width="340px" height="340px" viewBox="0 0 340 340" version="1.1" xmlns="http://www.w3.org/2000/svg" xmlns:xlink="http://www.w3.org/1999/xlink">
    <!-- Generator: Sketch 53.2 (72643) - https://sketchapp.com -->
    <title>nsbrazil_logo_final</title>
    <desc>Created with Sketch.</desc>
    <g id="nsbrazil_logo_final" stroke="none" stroke-width="1" fill="none" fill-rule="evenodd">
        <g id="Group-30" transform="translate(28.000000, 28.160000)">
            <path d="M123.2346,198.6107 L77.7206,198.6107 C58.5026,198.6107 42.8676,182.9747 42.8676,163.7567 L42.8676,35.0397 C42.8676,15.8217 58.5026,0.1867 77.7206,0.1867 L123.2346,0.1867 C125.9886,0.1867 128.2206,2.4187 128.2206,5.1727 C128.2206,7.9267 125.9886,10.1587 123.2346,10.1587 L77.7206,10.1587 C64.0016,10.1587 52.8396,21.3207 52.8396,35.0397 L52.8396,163.7567 C52.8396,177.4767 64.0016,188.6387 77.7206,188.6387 L123.2346,188.6387 C125.9886,188.6387 128.2206,190.8707 128.2206,193.6247 C128.2206,196.3787 125.9886,198.6107 123.2346,198.6107" id="Fill-2" fill="#65B445"></path>
            <path d="M206.4376,198.6107 L160.9256,198.6107 C158.1716,198.6107 155.9396,196.3787 155.9396,193.6247 C155.9396,190.8707 158.1716,188.6387 160.9256,188.6387 L206.4376,188.6387 C220.1576,188.6387 231.3206,177.4767 231.3206,163.7567 L231.3206,35.0397 C231.3206,21.3207 220.1576,10.1587 206.4376,10.1587 L160.9256,10.1587 C158.1716,10.1587 155.9396,7.9267 155.9396,5.1727 C155.9396,2.4187 158.1716,0.1867 160.9256,0.1867 L206.4376,0.1867 C225.6566,0.1867 241.2926,15.8217 241.2926,35.0397 L241.2926,163.7567 C241.2926,182.9747 225.6566,198.6107 206.4376,198.6107" id="Fill-4" fill="#65B445"></path>
            <path d="M123.2346,167.5966 C121.9586,167.5966 120.6826,167.1096 119.7086,166.1366 L69.5016,115.9296 C60.3876,106.8146 60.3876,91.9836 69.5016,82.8686 L119.7086,32.6616 C121.6556,30.7146 124.8136,30.7146 126.7606,32.6616 C128.7076,34.6086 128.7076,37.7656 126.7606,39.7126 L76.5536,89.9196 C71.3266,95.1466 71.3266,103.6516 76.5536,108.8776 L126.7606,159.0846 C128.7076,161.0326 128.7076,164.1886 126.7606,166.1366 C125.7866,167.1096 124.5106,167.5966 123.2346,167.5966" id="Fill-6" fill="#FFE900"></path>
            <path d="M160.9254,167.5966 C159.6494,167.5966 158.3734,167.1096 157.3994,166.1366 C155.4524,164.1886 155.4524,161.0326 157.3994,159.0846 L207.6054,108.8786 C210.1384,106.3466 211.5324,102.9796 211.5324,99.3986 C211.5324,95.8176 210.1384,92.4516 207.6064,89.9196 L157.3994,39.7126 C155.4524,37.7656 155.4524,34.6076 157.3994,32.6606 C159.3474,30.7136 162.5044,30.7136 164.4514,32.6606 L214.6574,82.8676 C219.0734,87.2826 221.5054,93.1536 221.5054,99.3986 C221.5054,105.6436 219.0734,111.5146 214.6574,115.9306 L164.4514,166.1366 C163.4774,167.1096 162.2014,167.5966 160.9254,167.5966" id="Fill-8" fill="#FFE900"></path>
            <path d="M123.2297,135.9346 C122.3577,135.9346 121.4757,135.7056 120.6737,135.2256 C108.1347,127.7196 100.3457,113.9906 100.3457,99.3986 C100.3457,84.8056 108.1347,71.0776 120.6737,63.5716 C123.0357,62.1576 126.0987,62.9266 127.5127,65.2886 C128.9267,67.6516 128.1587,70.7136 125.7957,72.1276 C116.1037,77.9296 110.3177,88.1246 110.3177,99.3986 C110.3177,110.6726 116.1037,120.8676 125.7957,126.6696 C128.1587,128.0836 128.9267,131.1466 127.5127,133.5086 C126.5787,135.0696 124.9247,135.9346 123.2297,135.9346" id="Fill-10" fill="#00BAE3"></path>
            <path d="M160.93,135.9346 C159.235,135.9346 157.582,135.0696 156.648,133.5086 C155.233,131.1466 156.002,128.0836 158.364,126.6696 C168.056,120.8676 173.842,110.6726 173.842,99.3986 C173.842,88.1246 168.056,77.9296 158.364,72.1276 C156.002,70.7136 155.233,67.6516 156.647,65.2886 C158.062,62.9256 161.123,62.1576 163.487,63.5716 C176.025,71.0776 183.814,84.8056 183.814,99.3986 C183.814,113.9906 176.025,127.7196 163.487,135.2256 C162.684,135.7056 161.802,135.9346 160.93,135.9346" id="Fill-12" fill="#00BAE3"></path>
            <path d="M0.4751,280.7228 L0.4751,228.5368 C0.4751,226.6408 1.7001,225.4158 3.5571,225.4158 C4.9791,225.4158 5.7291,225.8508 6.6781,227.2338 L39.2291,273.5728 L39.5061,273.5728 L39.5061,228.2208 C39.5061,226.4828 40.5331,225.4158 42.1921,225.4158 C43.8121,225.4158 44.8391,226.4828 44.8391,228.2208 L44.8391,280.6438 C44.8391,282.4608 43.7331,283.5278 41.8761,283.5278 C40.4541,283.5278 39.7831,283.1718 38.8341,281.8288 L6.0851,235.3318 L5.8081,235.3318 L5.8081,280.7228 C5.8081,282.4608 4.7811,283.5278 3.1221,283.5278 C1.5021,283.5278 0.4751,282.4608 0.4751,280.7228" id="Fill-14" fill="#FFFFFE"></path>
            <path d="M53.4834,271.5978 C53.2464,270.8468 53.1284,270.1358 53.1284,269.4248 C53.1284,267.6868 54.0764,266.5798 55.6164,266.5798 C56.9994,266.5798 57.8684,267.2908 58.2244,268.7918 C59.6854,275.3508 65.9274,278.9848 74.1054,278.9848 C82.6774,278.9848 88.7614,274.4418 88.7614,267.9628 C88.7614,262.5898 85.2064,259.3508 76.4364,257.3358 L70.2334,255.9528 C58.9354,253.4248 54.1944,248.5658 54.1944,240.7038 C54.1944,231.4998 62.4904,225.0608 73.6704,225.0608 C83.1124,225.0608 90.7764,229.8798 92.7124,237.3858 C92.8304,237.8608 92.8704,238.4128 92.8704,239.0848 C92.8704,240.5858 91.8824,241.5738 90.4204,241.5738 C88.9984,241.5738 88.1694,240.8238 87.7344,239.4008 C86.1144,233.3168 80.6634,229.9588 73.5124,229.9588 C65.8094,229.9588 59.7254,233.9888 59.7254,240.4668 C59.7254,245.6428 63.2414,248.9208 71.6954,250.8178 L77.8974,252.2398 C89.5904,254.8868 94.2924,259.3118 94.2924,267.2518 C94.2924,277.3658 86.1544,283.8828 73.8284,283.8828 C63.0834,283.8828 55.4194,278.7868 53.4834,271.5978" id="Fill-16" fill="#FFFFFE"></path>
            <path d="M123.1641,275.7453 C131.1441,275.7453 135.3711,272.4663 135.3711,266.3043 C135.3711,260.1413 131.0251,256.9803 122.6501,256.9803 L110.9571,256.9803 L110.9571,275.7453 L123.1641,275.7453 Z M120.8721,250.2243 C128.5371,250.2243 132.7641,247.0643 132.7641,241.4153 C132.7641,236.1223 129.1291,233.1983 122.7291,233.1983 L110.9571,233.1983 L110.9571,250.2243 L120.8721,250.2243 Z M102.1081,278.3913 L102.1081,230.5523 C102.1081,227.7073 103.7671,225.9693 106.5321,225.9693 L124.8631,225.9693 C134.9761,225.9693 141.6131,231.5783 141.6131,240.1903 C141.6131,246.2353 137.1481,251.6473 131.4601,252.5963 L131.4601,252.9113 C139.2031,253.7803 144.4181,259.2713 144.4181,266.8563 C144.4181,276.8913 137.1091,282.9743 124.9811,282.9743 L106.5321,282.9743 C103.7671,282.9743 102.1081,281.2363 102.1081,278.3913 L102.1081,278.3913 Z" id="Fill-18" fill="#FFFFFE"></path>
            <path d="M151.0078,279.2218 L151.0078,244.9708 C151.0078,242.3638 152.6678,240.6648 155.0768,240.6648 C157.4468,240.6648 159.1068,242.3638 159.1068,244.9708 L159.1068,248.5268 L159.3048,248.5268 C160.4498,243.8648 164.2818,240.7438 168.4298,240.7438 C169.9318,240.7438 171.0768,241.0998 171.7878,241.7708 C172.5778,242.4038 172.9338,243.4298 172.9338,244.7738 C172.9338,246.1168 172.4988,247.1048 171.6688,247.7758 C170.8008,248.5268 169.5358,248.8818 167.7588,248.8818 C161.9118,248.9208 159.5408,252.8318 159.5408,258.0078 L159.5408,279.2218 C159.5408,281.9878 157.8028,283.7258 155.2748,283.7258 C152.7068,283.7258 151.0078,281.9878 151.0078,279.2218" id="Fill-20" fill="#FFFFFE"></path>
            <path d="M201.8477,267.4093 L201.8477,264.1313 L191.5767,264.7633 C186.4807,265.1183 183.5967,267.3703 183.5967,270.9263 C183.5967,274.5593 186.6387,276.9303 191.1817,276.9303 C197.1467,276.9303 201.8477,272.8223 201.8477,267.4093 M174.9847,271.1633 C174.9847,263.8933 180.5937,259.4303 190.4307,258.8773 L201.8477,258.2053 L201.8477,255.0053 C201.8477,250.3833 198.7267,247.6173 193.5127,247.6173 C189.4037,247.6173 186.6777,249.0793 184.3077,252.8723 C183.4387,254.1363 182.3317,254.6893 180.8307,254.6893 C178.6987,254.6893 177.1577,253.2663 177.1577,251.1343 C177.1577,250.2643 177.3947,249.3163 177.9087,248.3683 C180.0797,243.6673 186.3617,240.6653 193.8277,240.6653 C203.9027,240.6653 210.3417,245.9983 210.3417,254.3333 L210.3417,279.4193 C210.3417,282.1053 208.6427,283.7253 206.2327,283.7253 C203.8627,283.7253 202.2437,282.1843 202.1637,279.6563 L202.1637,276.1403 L201.9657,276.1403 C199.5567,280.7633 194.2627,283.6853 188.8507,283.6853 C180.7127,283.6853 174.9847,278.6293 174.9847,271.1633" id="Fill-22" fill="#FFFFFE"></path>
            <path d="M217.3682,279.1427 C217.3682,277.8387 217.7232,277.0097 218.7112,275.7857 L239.5702,248.3687 L239.5702,248.2097 L220.7262,248.2097 C218.4342,248.2097 217.0922,246.9857 217.0922,244.8127 C217.0922,242.6797 218.3952,241.4147 220.7262,241.4147 L244.8242,241.4147 C247.7082,241.4147 249.4462,242.9557 249.4462,245.5237 C249.4462,246.8677 248.9722,247.8947 247.7482,249.5537 L227.7582,276.0217 L227.7582,276.1797 L246.4832,276.1797 C248.8142,276.1797 250.1182,277.4047 250.1182,279.5777 C250.1182,281.7497 248.7742,282.9747 246.4832,282.9747 L221.5162,282.9747 C219.0272,282.9747 217.3682,281.4737 217.3682,279.1427" id="Fill-24" fill="#FFFFFE"></path>
            <path d="M257.5,279.2218 L257.5,245.2078 C257.5,242.4428 259.198,240.6648 261.767,240.6648 C264.334,240.6648 266.033,242.4428 266.033,245.2078 L266.033,279.2218 C266.033,281.9478 264.334,283.7258 261.767,283.7258 C259.198,283.7258 257.5,281.9478 257.5,279.2218 M256.828,230.2358 C256.828,227.5098 259.04,225.3758 261.767,225.3758 C264.531,225.3758 266.744,227.5098 266.744,230.2358 C266.744,232.9218 264.531,235.1338 261.767,235.1338 C259.04,235.1338 256.828,232.9218 256.828,230.2358" id="Fill-26" fill="#FFFFFE"></path>
            <path d="M275.0771,279.2218 L275.0771,229.7218 C275.0771,226.9168 276.8551,225.2188 279.3441,225.2188 C281.8331,225.2188 283.6101,226.9168 283.6101,229.7218 L283.6101,279.2218 C283.6101,282.0268 281.8331,283.7258 279.3441,283.7258 C276.8551,283.7258 275.0771,282.0268 275.0771,279.2218" id="Fill-28" fill="#FFFFFE"></path>
        </g>
    </g>
</svg>