<?xml version="1.0" encoding="UTF-8"?>
<svg width="678px" height="365px" viewBox="0 0 678 365" version="1.1" xmlns="http://www.w3.org/2000/svg" xmlns:xlink="http://www.w3.org/1999/xlink">
    <!-- Generator: Sketch 53.2 (72643) - https://sketchapp.com -->
    <title>Group</title>
    <desc>Created with Sketch.</desc>
    <g id="Page-1" stroke="none" stroke-width="1" fill="none" fill-rule="evenodd">
        <g id="Artboard" transform="translate(-56.000000, -133.000000)" fill="#FFF8F3">
            <g id="Group" transform="translate(56.000000, 133.000000)">
                <polygon id="Fill-75" points="0 209 51.9315083 209 81 64 29.0649748 64"></polygon>
                <polygon id="Fill-76" points="34 42 85.6658402 42 94 0 42.2781554 0"></polygon>
                <path d="M72,250 L123.666084,250 L155.015597,93.3074001 L192.713383,93.3074001 L198.645317,64.4449954 L160.622159,64.4449954 L161.923651,57.7579825 C164.3587,45.4123251 168.306909,31.0535799 187.785556,31.0535799 C199.3293,31.0535799 210.391982,32.3246361 221.127542,36.9165014 L227,6.42337347 C215.225346,2.16149398 202.357369,0 189.77453,0 C148.282475,0 119.660147,25.1312959 109.188734,64.4449954 L91.2477372,64.4449954 L85.6394262,93.3074001 L103.318026,93.3074001 L72,250 Z" id="Fill-78"></path>
                <path d="M235.920219,212 C296.779362,212 339,155.434268 339,109.296153 C339,75.6914019 307.788662,61 278.112937,61 C211.334702,61 175,121.82603 175,163.707333 C175,197.312084 206.535911,212 235.920219,212" id="Fill-80"></path>
                <path d="M398.939056,212 C459.788608,212 502,155.434268 502,109.296153 C502,75.6914019 470.729653,61 441.090604,61 C374.359652,61 338,121.82603 338,163.707333 C338,197.312084 369.565202,212 398.939056,212" id="Fill-81"></path>
                <path d="M585.60568,208.78051 L636.829067,208.78051 L678,3 L626.450427,3 L614.175722,64.1493779 C607.496762,62.7907741 600.542201,61.7251684 593.357391,61.7251684 C542.873591,61.7251684 497,127.105577 497,173.826548 C497,193.045821 509.269472,212 530.096525,212 C559.700943,212 580.193088,197.245458 588.740204,183.410024 L591.937523,183.410024 L585.60568,208.78051 Z" id="Fill-82"></path>
                <path d="M427.115285,318.450311 C389.321206,351.209385 338.796588,368.02254 283.883699,364.551854 C214.645936,360.21918 166.6444,305.646366 157,250.298986 L160.264958,250.298986 C175.839124,285.663261 213.753584,318.273717 261.33694,323.63798 C307.796981,328.857122 364.725536,307.483994 395.963104,276.978679 L360.930416,250 L465,250.298986 L442.601966,362.45021 L427.115285,318.450311 Z" id="Fill-83"></path>
            </g>
        </g>
    </g>
</svg>