<?xml version="1.0" encoding="UTF-8"?>
<svg width="297px" height="265px" viewBox="0 0 297 265" version="1.1" xmlns="http://www.w3.org/2000/svg" xmlns:xlink="http://www.w3.org/1999/xlink">
    <!-- Generator: Sketch 53.2 (72643) - https://sketchapp.com -->
    <title>version-vertical-monocromatica-BR.eps</title>
    <desc>Created with Sketch.</desc>
    <g id="Page-1" stroke="none" stroke-width="1" fill="none" fill-rule="evenodd">
        <g id="Artboard" transform="translate(-50.000000, -20.000000)">
            <g id="version-vertical-monocromatica-BR.eps" transform="translate(50.000000, 20.000000)">
                <path d="M243,61.4270491 C243,63.0526919 243,63.7747334 243,65.0299101 C243,100.930484 206.553743,130 148.993698,130 C91.7834307,130 55,100.926286 55,65.0236133 C55,64.714017 55.0126046,62.3002155 55.0126046,61.4270491 C55.0126046,27.5876517 97.0931267,0 149.006302,0 C200.915276,0 243,27.5876517 243,61.4270491 Z M239,61.0015805 C239,28.968262 198.481285,3 148.500526,3 C98.5155592,3 58,28.968262 58,61.0015805 C58,93.031738 98.5155592,119 148.500526,119 C198.481285,119 239,93.031738 239,61.0015805 Z" id="Combined-Shape" fill="#FFFFFF"></path>
                <path d="M118.562927,42.9748378 C118.51439,43.0653904 117.610109,44.0003987 118.197839,44.7511431 C119.630759,46.5779894 124.055086,47.6246091 128.531116,46.6232657 C131.196475,46.0262502 134.611004,43.3159895 137.917906,40.6962813 C141.504428,37.8544034 145.061405,35.0083137 148.637375,33.8753531 C152.423324,32.6728986 154.849159,33.1898909 156.451962,33.6721362 C158.21093,34.196499 160.276952,35.3505183 163.576468,37.8207094 C169.789307,42.4810101 194.76834,64.2378548 199.082929,68 C202.556548,66.4332292 218.007398,59.796565 239,55.1794347 C237.176667,44.0109281 230.369767,33.793224 220.042821,25.4265837 C205.651361,31.4578089 188.069068,34.6039857 170.871911,26.2236573 C170.781167,26.1878574 161.47668,21.7918439 152.296704,22.0076961 C138.652304,22.3246302 132.738078,28.2168677 126.484087,34.4544686 L118.562927,42.9748378" id="Fill-66"></path>
                <path d="M198.0497,70.9470065 C197.756189,70.6864125 168.765891,45.2452665 162.196076,40.293981 C158.396208,37.4358876 156.283768,36.7068575 154.065074,36.4230527 C152.907861,36.2732376 151.311958,36.488465 150.193669,36.7944255 C147.14073,37.6279042 143.144136,40.3066415 139.595699,43.1278086 C135.925229,46.0608096 132.462005,48.8228947 129.250212,49.5445395 C125.145261,50.4687514 120.130319,49.3778438 117.843245,47.8269404 C116.916422,47.2034139 116.264175,46.479659 115.951727,45.7464088 C115.109066,43.7819311 116.664992,42.209927 116.920631,41.947223 L124.920131,33.2684941 C125.852213,32.3390071 126.788504,31.40741 127.746887,30.4895284 C125.165249,30.8271401 122.779286,31.4886478 120.455391,32.1374952 C117.557098,32.9540933 114.767162,33.7316551 111.948821,33.729545 C110.772672,33.729545 104.461651,32.6934993 103.263409,32.3685481 C96.0234621,30.3787496 89.6682569,28.444868 80.1770037,24 C68.8037008,32.4909324 61.1976533,43.1088179 59,54.8017856 C60.6337748,55.2364605 63.2680131,56.0224626 64.3736778,56.268286 C90.113258,62.0076837 98.1285383,67.9201072 99.584523,69.1534447 C101.157281,67.3957542 103.429627,66.2848009 105.963924,66.2848009 C108.813825,66.2890211 111.379683,67.7228154 112.937713,69.9415568 C114.414738,68.7746867 116.445121,67.7755673 119.074099,67.7776773 C120.268133,67.7776773 121.505299,67.9981799 122.754038,68.4265247 C125.660747,69.424589 127.156708,71.3637458 127.934145,73.1193263 C128.90936,72.677266 130.107602,72.3512598 131.518351,72.35548 C132.902798,72.35548 134.345107,72.6730459 135.796884,73.3029026 C140.543562,75.3454529 141.283127,80.0192638 140.851802,83.5451952 C141.188446,83.5051039 141.529298,83.4882233 141.874358,83.4882233 C147.500518,83.4924434 152.076771,88.0786863 152.076771,93.7241857 C152.076771,95.4713259 151.63177,97.1140174 150.854333,98.5573071 C152.386063,99.4192718 156.287976,101.373199 159.716483,100.937469 C162.454871,100.591417 163.494258,99.6534899 163.863515,99.1259717 C164.120206,98.7609291 164.387417,98.3378596 164.13809,98.0329541 L156.877102,89.9429355 C156.877102,89.9429355 155.682017,88.8087715 156.076521,88.3709314 C156.484702,87.922541 157.224266,88.5671682 157.748168,89.0039532 C161.444939,92.1004848 165.954915,96.7721857 165.954915,96.7721857 C166.031712,96.8228274 166.329431,97.4147028 168.000026,97.7143331 C169.434971,97.972817 171.978736,97.8230018 173.7377,96.3723269 C174.182701,96.0051743 174.627703,95.5493986 174.999063,95.0777973 C174.968555,95.1010081 174.946462,95.1316042 174.918058,95.1421545 C176.774859,92.7588275 174.710812,90.3470144 174.710812,90.3470144 L166.232646,80.7989357 C166.232646,80.7989357 165.019676,79.675322 165.434169,79.2227114 C165.801321,78.8312929 166.581914,79.4231683 167.114232,79.8652285 C169.796863,82.1166761 173.592523,85.9337975 177.226172,89.5050954 C177.936281,90.0262834 181.130189,92.0086966 185.362434,89.2212907 C187.929344,87.5321775 188.443778,85.4590311 188.372241,83.8933572 C188.193399,81.8202108 186.580664,80.344215 186.580664,80.344215 L174.999063,68.668128 C174.999063,68.668128 173.775573,67.6194219 174.206898,67.0897937 C174.562478,66.6435133 175.354643,67.2849754 175.876441,67.7228154 C179.566899,70.8193471 189.552598,80.0023833 189.552598,80.0023833 C189.696724,80.1026117 193.14522,82.5671766 197.411129,79.8441278 C198.936546,78.8671642 199.909658,77.3932784 199.992766,75.6809545 C200.137944,72.7099722 198.0497,70.9470065 198.0497,70.9470065" id="Fill-67"></path>
                <path d="M142.086501,85.1304922 C140.297081,85.1094757 138.339935,86.1750084 138.085202,86.0194869 C137.941587,85.9259638 138.192127,85.2051005 138.359852,84.7900261 C138.531771,84.3770533 140.889361,77.2692986 135.143717,74.7998688 C130.748263,72.9073398 128.061511,75.0373544 127.136925,75.997805 C126.894771,76.2500021 126.786798,76.2310873 126.758494,75.909536 C126.671487,74.6296357 126.099124,71.166129 122.304336,70.0060224 C116.881564,68.3425724 113.39602,72.136037 112.511268,73.5042062 C112.115017,70.4063853 109.503742,68.0021063 106.301234,68.0000047 C102.825125,67.9958014 100.004193,70.8204088 100,74.3038812 C100,77.7884043 102.816739,80.6151134 106.294945,80.6151134 C107.985827,80.6182659 109.516321,79.941537 110.647419,78.853937 C110.684109,78.8865125 110.696689,78.9474601 110.679916,79.0672537 C110.4147,80.6266724 109.925152,86.2979545 115.851101,88.6066087 C118.225464,89.5302806 120.245507,88.8430435 121.921713,87.6661238 C122.420696,87.3130478 122.501414,87.4622644 122.429082,87.9319815 C122.218377,89.3894705 122.486738,92.5125112 126.853888,94.2873482 C130.176948,95.640806 132.144577,94.2558236 133.43187,93.0620907 C133.991653,92.5492899 134.144703,92.6333556 134.174055,93.4256748 C134.331297,97.6457728 137.830469,100.996842 142.076018,100.999994 C146.453652,101.005248 149.999996,97.4587267 149.999996,93.0725989 C150.004189,88.687522 146.462038,85.1777791 142.086501,85.1304922" id="Fill-68"></path>
                <path d="M141.482496,100.599652 C137.498365,100.595434 134.261785,97.4955923 134.113328,93.5448752 C134.104905,93.2074775 134.07016,92.3081015 133.307868,92.3081015 C132.996213,92.3081015 132.724568,92.4947247 132.41186,92.7783497 C131.537962,93.5912674 130.420847,94.4189464 128.790975,94.4189464 C128.0529,94.4189464 127.251652,94.2449756 126.407235,93.8991429 C122.200945,92.1931754 122.141983,89.2999895 122.312551,88.1370215 C122.358878,87.8270373 122.375724,87.5033463 122.160935,87.2534611 L121.902977,87.0193914 L121.640808,87.0193914 C121.426019,87.0193914 121.205965,87.106904 120.910103,87.3177776 C119.691911,88.1739244 118.526363,88.5893454 117.339757,88.5893454 C116.686966,88.5893454 116.018382,88.4575494 115.347692,88.1992292 C109.809497,86.0409379 110.245393,80.8070549 110.517038,79.231829 C110.555995,78.9134099 110.477028,78.6656334 110.274874,78.501152 L109.883199,78.177461 L109.517847,78.5275112 C108.437583,79.5702812 107.026712,80.1406943 105.544245,80.1406943 C102.371891,80.1364768 99.7891547,77.5574926 99.7933662,74.3796273 C99.7933662,71.2028163 102.377155,68.6238321 105.550562,68.6280496 C108.415472,68.6280496 110.857121,70.7852866 111.222474,73.6531677 L111.419364,75.1988712 L112.267992,73.8904005 C112.363805,73.7385715 114.685425,70.219091 118.9591,70.2233084 C119.770877,70.2233084 120.611083,70.3551044 121.456552,70.614479 C124.861595,71.657249 125.438578,74.7486561 125.52702,76.0360395 C125.587035,76.7878039 126.119797,76.8236524 126.224033,76.8236524 C126.519894,76.8236524 126.735737,76.6359749 126.890511,76.4757109 C127.532773,75.8051329 128.933115,74.6864484 131.122071,74.6864484 C132.124421,74.6906658 133.19205,74.9278986 134.292319,75.4023643 C139.706273,77.7272458 137.250937,84.6154323 137.221456,84.6871293 C136.756079,85.8279555 136.739233,86.3329978 137.176181,86.6240034 L137.387812,86.7262771 L137.546798,86.7262771 C137.792121,86.7262771 138.095353,86.6197859 138.595475,86.4489783 C139.331445,86.1948756 140.442242,85.8110856 141.482496,85.8131944 L141.486708,85.8131944 C145.560335,85.8574778 148.874828,89.1787372 148.872723,93.2116949 C148.868511,97.2868274 145.554017,100.599652 141.482496,100.599652 Z M198.825977,67.4039283 C189.888004,59.5942242 169.232432,41.6098684 163.638435,37.4050486 C160.440811,34.996872 158.260279,33.7263585 156.348233,33.154891 C155.489076,32.8944621 154.298258,32.5992391 152.767358,32.5971303 C151.343853,32.5971303 149.815058,32.8554505 148.218879,33.3636559 C144.603259,34.509754 141.002379,37.3755263 137.517317,40.1495686 L137.339379,40.290854 C134.09227,42.8740557 130.73882,45.5468787 128.201358,46.1141287 C127.091613,46.3640139 125.95344,46.4926468 124.817373,46.4926468 C121.973521,46.4894837 119.419213,45.668131 118.462137,44.4450641 C118.303151,44.2436798 118.405281,43.9157713 118.775898,43.4455232 L118.82433,43.3822611 L126.686251,34.896707 C132.844597,28.7297083 138.660755,22.9064336 152.051394,22.5985581 C152.2725,22.5922319 152.500977,22.5880145 152.722084,22.5880145 C161.055698,22.5943407 169.386154,26.3299667 170.323225,26.7633119 C178.137766,30.5801243 186.203946,32.5201615 194.31119,32.5254333 C202.761675,32.527542 211.479594,30.4335671 220.646043,26.2066056 C219.622635,25.3441325 218.557112,24.5048556 217.462108,23.6813941 C209.407509,27.1776786 201.736161,28.9447994 194.331195,28.9426907 C186.771453,28.9363645 179.219082,27.1175796 171.882553,23.5337826 C171.496143,23.3482138 162.298107,19.0042175 152.726295,19 C152.474655,19 152.219856,19.0042175 151.968216,19.0084349 C140.721258,19.2730813 134.388132,23.271245 130.127091,26.7759643 C125.982921,26.8771837 122.408364,27.877779 119.225481,28.7676656 C116.387946,29.5573872 113.938927,30.2427265 111.547816,30.2406177 C110.562312,30.2406177 108.789248,30.1509965 108.631314,30.1446702 C105.881169,30.0613752 92.0314703,26.6589295 81.0150953,22.4815233 C79.8895572,23.2796799 78.8071876,24.1031413 77.7532459,24.9424183 C89.26132,29.6670415 103.267899,33.3214812 107.691085,33.6072149 C108.918753,33.6884013 110.228547,33.8286322 111.540446,33.8307409 C114.465371,33.8307409 117.383979,33.0093882 120.207826,32.2175578 C121.875602,31.7494184 123.71921,31.2380499 125.65442,30.8679667 C125.138504,31.3761721 124.621536,31.8907037 124.103515,32.4094528 L116.115248,41.0637057 C115.487726,41.6994897 114.120024,43.3949135 115.022349,45.484671 C115.378226,46.3260567 116.104719,47.1326482 117.121809,47.8179874 C119.025432,49.1022077 122.433633,49.9699526 125.59967,49.9720614 C126.801016,49.9741701 127.939188,49.8539721 128.982601,49.6177937 C132.332893,48.8660293 135.84533,46.0645734 139.566239,43.1017992 C142.531174,40.7431779 146.743782,37.7477182 149.969833,36.8683753 C150.870053,36.6216532 151.976639,36.4698242 152.867383,36.4698242 C153.132711,36.4719329 153.383298,36.4803678 153.615986,36.5141076 C155.747033,36.7840258 157.808589,37.5094311 161.484224,40.2739841 C168.042668,45.2073722 197.061335,70.6302945 197.344562,70.8791254 C197.364567,70.8959952 199.216598,72.4944172 199.087093,75.1503703 C199.017602,76.6317574 198.196349,77.9486631 196.769685,78.8617458 C195.529382,79.6493588 194.252228,80.0489643 192.961386,80.0489643 C191.019859,80.0447468 189.685849,79.1358815 189.596354,79.0736738 C189.492118,78.9861613 179.547584,69.8574427 175.889848,66.7892317 C175.307601,66.3063311 174.741146,65.8708771 174.171534,65.8708771 C173.86409,65.8687684 173.593498,66.0005644 173.410295,66.2293623 C172.835418,66.9400063 173.480839,67.9237317 174.237866,68.5711137 L185.852281,80.2608922 C185.868075,80.274599 187.300003,81.6178639 187.457937,83.411344 C187.549538,85.3492724 186.622996,86.9698361 184.699368,88.232969 C183.32956,89.1365624 181.942906,89.5952125 180.583626,89.5952125 C178.797927,89.5952125 177.548148,88.7822948 177.271238,88.5893454 L175.602409,86.9455856 C172.561667,83.9448542 169.414582,80.8429034 167.115073,78.9197361 C166.552831,78.452651 165.955843,78.0214145 165.383071,78.0214145 C165.100897,78.0214145 164.846098,78.1257969 164.651313,78.3324531 C164.389144,78.624513 164.205942,79.1485339 164.860838,80.0194419 C165.129325,80.3779271 165.44835,80.6742045 165.44835,80.6742045 L173.921999,90.2078004 C173.992543,90.2932042 175.669794,92.2870142 174.112572,94.2744979 L173.815657,94.6561792 C173.559805,94.9345323 173.287107,95.1928525 173.027044,95.4163785 C171.581427,96.6035969 169.650429,96.7311755 168.884979,96.7311755 C168.475405,96.7311755 168.082678,96.695327 167.739436,96.6331193 C166.904495,96.483399 166.340147,96.2493293 166.070608,95.9288014 L165.966372,95.8202015 C165.504153,95.3415184 161.230478,90.9743259 157.698036,88.0199867 C157.231606,87.6288161 156.649359,87.1364263 156.050265,87.1364263 C155.751245,87.1364263 155.489076,87.2534611 155.284815,87.4790959 C154.585697,88.2456214 155.633321,89.3927739 156.078693,89.8134667 L163.307827,97.7960872 C163.299404,97.8667299 163.209909,98.0312113 163.033023,98.2832052 C162.775066,98.6416904 161.899062,99.519979 159.276316,99.8499962 C158.963608,99.8911165 158.638266,99.9079864 158.318188,99.9079864 C155.613316,99.9079864 152.730507,98.5942438 151.242775,97.8034678 C151.91873,96.3726903 152.270395,94.7974645 152.270395,93.2159124 C152.2725,87.2576786 147.440794,82.411803 141.493025,82.4075856 C141.366679,82.4075856 141.22875,82.411803 141.104509,82.4160205 C141.297188,79.6968053 140.912884,74.5441087 135.633699,72.2782717 C134.113328,71.6192917 132.599274,71.2840027 131.126283,71.2840027 C129.973369,71.2840027 128.864678,71.4822239 127.821265,71.8818294 C126.727313,69.7530603 124.912133,68.2020849 122.542081,67.394439 C121.23334,66.9400063 119.930917,66.7112085 118.671662,66.7112085 C116.475336,66.7112085 114.450631,67.3585904 112.647032,68.6438651 C110.916083,66.4897912 108.302813,65.2150602 105.552668,65.2150602 C103.145764,65.2150602 100.829409,66.179807 99.1132001,67.881557 C96.8642297,66.1608283 87.9388917,60.4830564 64.0509517,55.0520066 C62.8917212,54.7873602 60.2363357,54.0271609 58.6117284,53.5495321 C58.341136,54.8453505 58.1358226,56.1538212 58,57.4749444 C58,57.4749444 62.4073923,58.5314212 63.2728669,58.7264792 C87.6767224,64.154366 95.7407974,69.7983981 97.1011297,70.8654186 C96.6389115,71.9756681 96.4009587,73.1734302 96.3988529,74.3796273 C96.3946413,79.4279415 100.496696,83.5410312 105.540033,83.5452487 C106.105434,83.5452487 106.667677,83.494639 107.216232,83.3934197 C107.978523,87.106904 110.403326,89.9241754 114.115812,91.369714 C115.199234,91.7861893 116.296345,92.0012804 117.374503,92.0012804 C118.071515,92.0033892 118.771686,91.9158766 119.456064,91.7408515 C120.141494,93.4826675 121.681871,95.6557201 125.130081,97.0580296 C126.338797,97.5451476 127.547514,97.8003047 128.720432,97.8003047 C129.681719,97.8003047 130.61879,97.6305514 131.512693,97.3015886 C133.164675,101.331383 137.097215,103.999989 141.478285,103.999989 C144.383205,104.004206 147.172307,102.818042 149.205435,100.723013 C150.946913,101.691977 154.623601,103.446446 158.335034,103.449609 C158.815151,103.449609 159.26684,103.416923 159.715371,103.362096 C163.402587,102.896065 165.120902,101.451581 165.90741,100.328679 C166.04955,100.132567 166.178002,99.9248563 166.288556,99.7087108 C167.160347,99.9596504 168.117423,100.164198 169.21348,100.166307 C171.225551,100.166307 173.16076,99.4788586 175.111763,98.053353 C177.030127,96.6679134 178.397829,94.6793753 178.592613,92.9850058 C178.596825,92.9618097 178.598931,92.9365049 178.603142,92.9122544 C179.249616,93.0451048 179.913989,93.1136387 180.575203,93.1136387 C182.650447,93.1136387 184.689892,92.4662567 186.637736,91.189417 C190.397602,88.7200871 191.048287,85.4968839 190.986167,83.3870935 C191.646328,83.5241613 192.317018,83.594804 192.983497,83.594804 C194.931341,83.594804 196.842334,83.007521 198.663832,81.844553 C200.993875,80.3557854 202.396322,78.0699154 202.610059,75.412908 C202.753252,73.6067755 202.308933,71.7837731 201.355015,70.2169822 C207.655502,67.4998758 222.048491,62.2417423 239,58.416495 C238.898923,57.1006437 238.70835,55.8006079 238.47145,54.505844 C217.96223,59.0649314 202.658492,65.695852 198.825977,67.4039283 L198.825977,67.4039283 Z" id="Fill-69" fill="#FFFFFF"></path>
                <path d="M283.532495,191.866363 C281.887841,194.058681 279.538784,195.153786 276.465409,195.153786 C273.399371,195.153786 271.037736,194.058681 269.381551,191.866363 C267.724319,189.675099 266.900419,186.555261 266.900419,182.514229 C266.900419,178.478467 267.724319,175.367061 269.381551,173.186337 C271.037736,171.005613 273.399371,169.915778 276.465409,169.915778 C279.538784,169.915778 281.887841,171.005613 283.532495,173.186337 C285.171908,175.367061 285.996855,178.478467 285.996855,182.514229 C285.996855,186.555261 285.171908,189.675099 283.532495,191.866363 Z M291.921384,167.398828 C288.535639,163.131186 283.395178,161 276.497904,161 C269.609015,161 264.467505,163.131186 261.083857,167.398828 C257.694969,171.660147 256,176.699316 256,182.514229 C256,188.433488 257.694969,193.490575 261.083857,197.699194 C264.467505,201.896218 269.609015,204 276.497904,204 C283.395178,204 288.535639,201.896218 291.921384,197.699194 C295.309224,193.490575 297,188.433488 297,182.514229 C297,176.699316 295.309224,171.660147 291.921384,167.398828 L291.921384,167.398828 Z" id="Fill-70" fill="#FFFFFF"></path>
                <path d="M200.392488,186.838959 C200.321432,190.397726 199.301193,192.848685 197.341317,194.193956 C195.382501,195.538167 193.240212,196.212393 190.918692,196.212393 C189.446664,196.212393 188.202651,195.802133 187.17711,194.998575 C186.15475,194.189716 185.645692,192.874128 185.645692,191.05605 C185.645692,189.017472 186.479275,187.511065 188.155988,186.53895 C189.153955,185.969674 190.779761,185.478847 193.051436,185.089789 L195.47795,184.639245 C196.684843,184.410262 197.637207,184.166439 198.3308,183.904593 C199.032877,183.649108 199.711622,183.308815 200.392488,182.881593 L200.392488,186.838959 Z M205.788511,163.649198 C202.316306,161.888367 198.339284,161 193.86487,161 C186.987274,161 182.133186,162.794755 179.30791,166.374724 C177.531507,168.668788 176.53354,171.590433 176.301281,175.15238 L186.577905,175.15238 C186.829253,173.580247 187.33513,172.336745 188.093416,171.416576 C189.153955,170.175195 190.95369,169.550794 193.502165,169.550794 C195.778082,169.550794 197.498277,169.865644 198.676536,170.505947 C199.84631,171.138829 200.43597,172.291161 200.43597,173.955523 C200.43597,175.328357 199.673442,176.331215 198.139903,176.983178 C197.285108,177.355275 195.868228,177.665885 193.881838,177.915009 L190.238886,178.361313 C186.102784,178.885004 182.961467,179.760649 180.834026,180.979768 C176.942908,183.220826 175,186.838959 175,191.842647 C175,195.698243 176.202651,198.682434 178.625983,200.783559 C181.034468,202.886804 184.10791,203.77093 187.812373,203.942667 C211.050906,204.977328 210.786832,191.700593 211,188.940084 L211,173.656574 C211,168.756776 209.261776,165.419571 205.788511,163.649198 L205.788511,163.649198 Z" id="Fill-71" fill="#FFFFFF"></path>
                <path d="M153.291772,169.987674 C155.916349,169.987674 157.840271,170.807632 159.086578,172.450735 C159.939094,173.66474 160.473226,175.037001 160.680595,176.555835 L172,176.555835 C171.379988,170.764085 169.379612,166.72165 166.007251,164.429591 C162.623369,162.150278 158.288522,161 152.98805,161 C146.752323,161 141.856115,162.943683 138.319324,166.818303 C134.775203,170.70142 133,176.123552 133,183.096381 C133,189.270495 134.60449,194.30389 137.812423,198.181697 C141.019308,202.059504 146.024437,204 152.824668,204 C159.633278,204 164.771416,201.673953 168.233847,197.025046 C170.40703,194.14351 171.622966,191.083537 171.879559,187.851501 L160.599952,187.851501 C160.369542,189.98849 159.711827,191.730369 158.618427,193.073953 C157.530265,194.412227 155.696412,195.085612 153.102207,195.085612 C149.449165,195.085612 146.960739,193.396838 145.639025,190.011856 C144.916376,188.205187 144.549815,185.812227 144.549815,182.836162 C144.549815,179.714586 144.916376,177.211165 145.639025,175.320588 C147.013105,171.768853 149.567512,169.987674 153.291772,169.987674" id="Fill-72" fill="#FFFFFF"></path>
                <path d="M129.61632,161 C106.657364,161 108.015191,181.836231 108.015191,181.836231 L108.015191,203 L118.434158,203 L118.434158,183.1485 C118.434158,179.896449 118.837472,177.488151 119.629624,175.921485 C121.059841,173.14643 123.850986,171.753603 128.018573,171.753603 C128.331917,171.753603 128.745573,171.770563 129.254371,171.796002 C129.7611,171.820382 130.337116,171.867022 131,171.946521 L131,161.079499 C130.537739,161.04876 130.236804,161.03392 130.108571,161.0212 C129.973098,161.00848 129.809704,161 129.61632,161" id="Fill-73" fill="#FFFFFF"></path>
                <path d="M76.6863684,172.058566 C78.1814382,170.514943 80.2781181,169.742602 82.98273,169.742602 C85.4724057,169.742602 87.5532816,170.467268 89.2380009,171.928253 C90.9142912,173.382881 91.8520024,175.522975 92.0427054,178.330525 L73.8795566,178.330525 C74.2588554,175.692488 75.1997274,173.603247 76.6863684,172.058566 Z M90.955382,191.929657 C90.5107594,192.569567 90.0313677,193.118363 89.5024565,193.545322 C88.0031722,194.784882 85.9676015,195.163106 83.5695896,195.163106 C81.3001179,195.163106 79.525842,194.817725 77.9190898,193.798532 C75.2703192,192.163796 73.7794638,189.392268 73.6214226,185.32609 L102.9918,185.32609 C103.032891,181.826718 102.920155,179.146303 102.639895,177.279548 C102.149967,174.105428 101.077394,171.304235 99.4295514,168.897159 C97.597327,166.164831 95.2677996,164.165644 92.4588806,162.897479 C89.648908,161.634612 86.4901911,161 82.98273,161 C77.0667209,161 72.2664827,162.87629 68.5609432,166.619336 C64.8585646,170.372977 63,175.754995 63,182.777047 C63,190.275852 65.0524284,195.685417 69.1572853,199.008919 C73.2579278,202.3356 77.9981104,204 83.3609752,204 C89.8606832,204 94.920109,202.030478 98.5297701,198.084017 C100.478945,196.009609 101.697969,193.95639 102.21213,191.929657 L90.955382,191.929657 L90.955382,191.929657 Z" id="Fill-74" fill="#FFFFFF"></path>
                <path d="M58,203 L48.3034773,203 L48.3034773,178.519282 C48.3034773,176.281564 47.5658588,170.963022 41.1696523,170.963022 C36.9051633,170.963022 33.8198103,174.045959 33.8198103,178.519282 L33.8198103,203 L24.1127503,203 L24.1127503,178.519282 C24.1127503,176.281564 23.4499473,170.963022 17.0579557,170.963022 C12.7186512,170.963022 9.70389884,174.045959 9.70389884,178.519282 L9.70389884,203 L0,203 L0,178.751717 C0,168.645008 6.68809273,161 17.0579557,161 C22.2054795,161 26.3919916,163.166931 29.1159115,166.640782 C31.9789252,163.166931 36.2413066,161 41.1696523,161 C51.7555321,161 58,168.33439 58,178.751717 L58,203" id="Fill-75" fill="#FFFFFF"></path>
                <path d="M240.360482,191.111863 C238.823031,193.317478 236.561828,194.420285 233.606157,194.420285 C230.637936,194.420285 228.432165,193.308061 226.978385,191.09303 C225.523559,188.87486 224.795623,185.645957 224.795623,181.949355 C224.795623,178.51747 225.506825,175.64745 226.941779,173.334066 C228.369412,171.020682 230.613881,169.860328 233.677277,169.860328 C235.686422,169.860328 237.446646,170.497529 238.967363,171.768791 C241.439835,173.877099 242.675025,177.657405 242.675025,182.553074 C242.675025,186.055063 241.902116,188.908341 240.360482,191.111863 Z M253,148.050065 C253,148.050065 242.386361,146.915868 242.386361,155.444314 L242.377994,166.737102 C241.203465,164.850611 239.674381,163.375319 237.789697,162.312271 C235.90815,161.247131 233.755719,160.711422 231.325082,160.711422 C226.061144,160.711422 221.8661,162.672201 218.715895,166.589573 C215.566735,170.511131 214,176.160141 214,182.990431 C214,188.918804 215.59602,193.779945 218.790153,197.56339 C221.985331,201.341604 228.249135,203 233.813243,203 C253.214406,203 252.991633,186.357446 252.991633,186.357446 L253,148.050065 L253,148.050065 Z" id="Fill-76" fill="#FFFFFF"></path>
                <path d="M190.345117,233.796442 C191.797661,232.290424 193.843483,231.536892 196.479466,231.536892 C198.900373,231.536892 200.936843,232.244375 202.572254,233.672946 C204.211821,235.094192 205.128233,237.181057 205.316294,239.927263 L187.602116,239.927263 C187.979279,237.348509 188.888417,235.305599 190.345117,233.796442 Z M204.25442,253.210361 C203.82219,253.835165 203.345282,254.37101 202.835125,254.785453 C201.372191,255.996337 199.30455,256.440084 196.972998,256.440084 C194.767168,256.440084 193.03409,256.113553 191.470371,255.110937 C188.881144,253.51596 187.511722,250.732077 187.351713,246.757195 L215.99322,246.757195 C216.029585,243.342229 215.920488,240.719519 215.646188,238.904762 C215.166163,235.797488 214.121952,233.062794 212.518751,230.710099 C210.727488,228.042386 208.4562,226.089482 205.718393,224.85348 C202.975392,223.616431 199.89575,223 196.479466,223 C190.706695,223 186.030085,224.830455 182.41535,228.489273 C178.805809,232.153323 177,237.407117 177,244.268446 C177,251.58922 178.99491,256.878598 182.999277,260.126112 C186.998448,263.37258 191.621029,265 196.849356,265 C203.184234,265 208.116442,263.07012 211.637666,259.220827 C213.535947,257.18943 214.729776,255.187336 215.23266,253.210361 L204.25442,253.210361 L204.25442,253.210361 Z" id="Fill-77" fill="#FFFFFF"></path>
                <path d="M175.11039,223.01673 C174.974563,223.004182 174.809706,223 174.622037,223 C151.653918,223 153.015291,243.497909 153.015291,243.497909 L153.015291,264 L163.435551,264 L163.435551,244.789223 C163.435551,241.587601 163.832661,239.215138 164.637251,237.677063 C166.059798,234.950143 168.85616,233.575181 173.01908,233.575181 C173.342574,233.575181 173.749016,233.586683 174.253958,233.618051 C174.765121,233.641054 175.344716,233.686014 176,233.762343 L176,223.071101 C175.537569,223.040778 175.238958,223.029277 175.11039,223.01673" id="Fill-78" fill="#FFFFFF"></path>
                <path d="M81,217.559023 C81,225.512967 81,264 81,264 L91,264 L91,210.003299 C91,210.003299 81,209.605078 81,217.559023" id="Fill-79" fill="#FFFFFF"></path>
                <polygon id="Fill-80" fill="#FFFFFF" points="99 220 110 220 110 209 99 209"></polygon>
                <polygon id="Fill-81" fill="#FFFFFF" points="99 264 110 264 110 224 99 224"></polygon>
                <path d="M138.789941,264 L128.061032,264 L114,224 L125.190684,224 L133.197223,252.121231 L140.300153,227.610828 C141.108259,225.203958 142.717123,224 145.136191,224 L153,224 L138.789941,264" id="Fill-82" fill="#FFFFFF"></path>
            </g>
        </g>
    </g>
</svg>