<?xml version="1.0" encoding="UTF-8"?>
<svg width="90px" viewBox="0 0 70 24" version="1.1" xmlns="http://www.w3.org/2000/svg" xmlns:xlink="http://www.w3.org/1999/xlink">
    <title>CE85D4A9-70EA-4D85-9ACC-6052E877632B</title>
    <desc>Created with sketchtool.</desc>
    <defs>
        <polygon id="path-1" points="0.0764198895 0.0732 9.81005525 0.0732 9.81005525 9.81603871 0.0764198895 9.81603871"></polygon>
    </defs>
    <g id="Landing-+-Fluxo-Candidato-Explora" stroke="none" stroke-width="1" fill="none" fill-rule="evenodd">
        <g id="Vagas-em-Startups" transform="translate(-16.000000, -80.000000)">
            <g id="logo-Cubo" transform="translate(16.000000, 80.000000)">
                <path d="M58.3947735,19.8954194 C58.3947735,22.122 56.5914033,23.9266452 54.3672597,23.9266452 L49.4413481,23.9266452 C47.2168177,23.9266452 45.4138343,22.122 45.4138343,19.8954194 L45.4138343,14.7121935 C45.4138343,12.486 47.2168177,10.6809677 49.4413481,10.6809677 L54.3672597,10.6809677 C56.5914033,10.6809677 58.3947735,12.486 58.3947735,14.7121935 L58.3947735,19.8954194 Z M54.0617348,13.7506452 L49.7596354,13.7506452 C49.155547,13.7506452 48.6663204,14.2403226 48.6663204,14.8445806 L48.6663204,19.7630323 C48.6663204,20.3672903 49.155547,20.8569677 49.7596354,20.8569677 L54.0617348,20.8569677 C54.6654365,20.8569677 55.154663,20.3672903 55.154663,19.7630323 L55.154663,14.8445806 C55.154663,14.2403226 54.6654365,13.7506452 54.0617348,13.7506452 Z M11.0538895,20.5906452 C8.98869613,20.8198065 7.23366851,20.9850968 4.3118453,20.7241935 C3.33029834,20.6359355 3.24366851,19.8791613 3.24366851,19.7382581 L3.24366851,14.733871 C3.24366851,13.8342581 4.04074033,13.8292258 4.45223204,13.7909032 C5.98333702,13.6480645 11.0538895,13.9310323 11.0538895,13.9310323 L11.0538895,11.1207097 C9.28764641,10.7998065 6.02085083,10.5609677 3.65748066,10.7452258 C2.64035359,10.8245806 1.90322652,11.1288387 1.3699116,11.5503871 C0.81919337,11.9847097 0.478475138,12.5413548 0.284331492,13.1088387 C-0.0115248619,13.9728387 7.73480663e-05,16.4359355 7.73480663e-05,16.7305161 L7.73480663e-05,18.4476774 C7.73480663e-05,19.9480645 0.0774254144,20.9789032 0.417370166,21.7523226 C1.27825414,23.7114194 3.03289503,23.7749032 3.65090608,23.858129 C5.62714917,24.1244516 11.0538895,23.5294839 11.0538895,23.5294839 L11.0538895,20.5906452 Z M23.5212376,10.6809677 L23.5212376,19.7630323 C23.5212376,20.3672903 23.0316243,20.8569677 22.4279227,20.8569677 L18.1258232,20.8569677 C17.5221215,20.8569677 17.0325083,20.3672903 17.0325083,19.7630323 L17.0325083,10.6809677 L13.7877569,10.6809677 L13.7877569,20.3274194 C13.7877569,22.3151613 15.3981436,23.9266452 17.3840552,23.9266452 L22.8196906,23.9266452 C24.1539448,23.9266452 24.5194144,23.5960645 25.0573702,23.0576129 C25.1273702,22.9871613 25.4023425,22.7111613 25.4765967,22.6364516 C25.5508508,22.562129 25.8269834,22.2869032 25.8973702,22.2168387 C26.4349392,21.6783871 26.7656022,21.3125806 26.7656022,19.9770968 L26.7656022,10.6809677 L23.5212376,10.6809677 Z M39.7562099,14.8445806 L39.7562099,19.7630323 C39.7562099,20.3672903 39.2669834,20.8569677 38.6632818,20.8569677 L33.5362652,20.8569677 C32.9325635,20.8569677 32.443337,20.3672903 32.443337,19.7630323 L32.443337,14.8445806 C32.443337,14.2403226 32.9325635,13.7506452 33.5362652,13.7506452 L38.6632818,13.7506452 C39.2669834,13.7506452 39.7562099,14.2403226 39.7562099,14.8445806 Z M39.2480331,10.6809677 L35.0039448,10.6809677 C33.4132818,10.6809677 33.6785856,10.6163226 32.443337,11.613871 L32.443337,6.07374194 L29.1993591,6.07374194 L29.1993591,19.9770968 C29.1993591,21.3125806 29.5300221,21.6783871 30.0675912,22.2168387 C30.1379779,22.2869032 30.4141105,22.562129 30.4883646,22.6364516 C30.5626188,22.7111613 30.8375912,22.9871613 30.9079779,23.0576129 C31.445547,23.5960645 31.8110166,23.9266452 33.1452707,23.9266452 L39.2480331,23.9266452 C41.3136133,23.9266452 42.9878122,22.2509032 42.9878122,20.1834194 L42.9878122,14.4241935 C42.9878122,12.3570968 41.3136133,10.6809677 39.2480331,10.6809677 Z" id="Fill-1" fill="#FFFFFF"></path>
                <g id="Group-5" transform="translate(59.944751, 0.313897)">
                    <mask id="mask-2" fill="white">
                        <use xlink:href="#path-1"></use>
                    </mask>
                    <g id="Clip-4"></g>
                    <path d="M1.69918232,0.0732 L8.18713812,0.0732 C9.08476243,0.0732 9.81028729,0.802103226 9.81028729,1.69784516 L9.81028729,8.19294194 C9.81028729,9.08907097 9.08476243,9.81603871 8.18713812,9.81603871 L1.69918232,9.81603871 C0.802331492,9.81603871 0.0764198895,9.08907097 0.0764198895,8.19294194 L0.0764198895,1.69784516 C0.0764198895,0.802103226 0.802331492,0.0732 1.69918232,0.0732" id="Fill-3" fill="#FFFFFF" mask="url(#mask-2)"></path>
                </g>
                <path d="M60.8327072,8.50563871 L61.5887845,8.50563871 L61.5887845,5.25828387 L60.8327072,5.25828387 L60.8327072,8.50563871 Z M65.4132597,7.34899355 C65.360663,7.34860645 65.3111602,7.34899355 65.2624309,7.35131613 C65.181989,7.35363871 65.1073481,7.36138065 65.0396685,7.37067097 C64.7472928,7.41634839 64.551989,7.53363871 64.551989,7.76357419 C64.551989,7.96873548 64.6958564,8.07557419 64.9035359,8.07557419 C65.141768,8.07557419 65.3196685,7.92654194 65.3873481,7.76667097 C65.3885083,7.76396129 65.3912155,7.75931613 65.3927624,7.75583226 C65.3939227,7.75196129 65.3981768,7.73531613 65.3989503,7.72989677 C65.4086188,7.69002581 65.4132597,7.64589677 65.4132597,7.60757419 L65.4132597,7.34899355 Z M64.9801105,6.00073548 C65.8166298,6.00073548 66.1043646,6.48112258 66.1043646,7.06602581 L66.1043646,8.50563871 L65.4890608,8.50563871 L65.4055249,8.25325161 L65.3981768,8.25325161 C65.2326519,8.44834839 64.9607735,8.56563871 64.6390055,8.56563871 C64.0971823,8.56563871 63.8028729,8.19209032 63.8028729,7.82086452 C63.8028729,7.19221935 64.408895,6.87363871 65.3912155,6.87712258 L65.3912155,6.8508 C65.3912155,6.73738065 65.2968508,6.51054194 64.8536464,6.51325161 C64.5887293,6.51325161 64.2955801,6.60576774 64.1242541,6.70950968 L63.9827072,6.23067097 C64.1702762,6.12034839 64.5167956,6.00073548 64.9801105,6.00073548 Z M68.1946961,6.07157419 L68.1946961,7.49802581 C68.1946961,7.55647742 68.1873481,7.60757419 68.169558,7.65363871 C68.1088398,7.79957419 67.959558,7.96602581 67.7139779,7.96602581 C67.4041989,7.96602581 67.2696133,7.7388 67.2696133,7.35789677 L67.2696133,6.0708 L66.5305525,6.0708 L66.5305525,7.49376774 C66.5305525,7.68460645 66.5541436,7.84563871 66.6005525,7.98034839 C66.6454144,8.11312258 66.7088398,8.22344516 66.7873481,8.31054194 C66.8666298,8.39802581 66.9621547,8.46189677 67.0735359,8.50021935 C67.1845304,8.54086452 67.3071271,8.56215484 67.4401657,8.56215484 C67.5565746,8.56215484 67.6598343,8.54744516 67.7507182,8.51802581 C67.8400552,8.48976774 67.9170166,8.45647742 67.9827624,8.41505806 C68.0473481,8.37596129 68.1018785,8.33260645 68.1459669,8.28576774 C68.190442,8.23854194 68.2256354,8.19673548 68.2492265,8.16073548 L68.3443646,8.50563871 L68.9438122,8.50563871 L68.9438122,6.07157419 L68.1946961,6.07157419 Z M62.2996133,5.25828387 L62.2996133,6.0708 L61.9542541,6.0708 L61.9542541,6.62589677 L62.2996133,6.62589677 L62.2996133,7.61492903 C62.2996133,7.9428 62.3649724,8.18899355 62.5076796,8.3384129 C62.6287293,8.46847742 62.8418232,8.56563871 63.1020994,8.56563871 C63.3244751,8.56563871 63.4114917,8.53234839 63.5112707,8.49402581 L63.5112707,7.92809032 C63.4907735,7.93815484 63.4327624,7.94938065 63.3561878,7.94938065 C63.0947514,7.94938065 63.0344199,7.78602581 63.0344199,7.4871871 L63.0344199,6.62589677 L63.5035359,6.62589677 L63.5035359,6.0708 L63.0344199,6.0708 L63.0344199,5.25828387 L62.2996133,5.25828387 Z M67.9150829,5.25828387 L67.4583425,5.91325161 L67.9866298,5.91325161 L68.6293923,5.25828387 L67.9150829,5.25828387 Z" id="Fill-6" fill="#3F3C42"></path>
            </g>
        </g>
    </g>
</svg>
